<svg xmlns="http://www.w3.org/2000/svg" viewBox="0 0 24 24" fill="currentColor"><path d="M21.58 7.16c0-4.03-2.64-5.22-2.64-5.22C17.61 1.38 14.88 1.02 12 1h-.07c-2.88.02-5.61.38-6.94.94 0 0-2.64 1.19-2.64 5.22 0 .92-.02 2.02.01 3.24.09 4.12.67 8.18 4.03 9.19 1.55.46 2.89.56 3.97.5l.07-.02v-1.39c-1.1.27-2.26.32-3.45-.1-.65-.23-1.24-.83-1.31-1.49 0 0 1.4.54 4.79.67 1.74.07 3.37-.09 3.37-.09l.09 2.06c0 1.06-.09 2.12-.09 2.12-.02.07-.04.13-.07.19-.73 1.27-2.55 1.51-3.2 1.51-3.2.24-6.28-1.19-6.72-4.47C3.22 13.3 3.16 8.7 3.16 8.7c0-4.04 2.64-5.23 2.64-5.23C7.13 2.91 9.87 2.55 12.73 2.53h.07c2.87.02 5.6.38 6.93.94 0 0 2.64 1.19 2.64 5.23 0 0 .03 4.58-.54 8.47-.43 3.28-3.5 4.71-6.71 4.47-.65 0-2.47-.24-3.2-1.51-.03-.06-.05-.12-.07-.19v-4.79l.01-.01c1.06 1.03 2.44 1.31 3.9 1.31 2.26 0 3.55-1.11 3.55-1.11v-5.2c0-1.37-.26-2.44-1.06-3.08-.88-.71-2.28-1.07-4.19-1.07-2.17 0-3.78.54-4.82 1.63l-.52.56-.52-.56C9.18 6.06 7.57 5.52 5.4 5.52c-1.91 0-3.31.36-4.19 1.07-.8.64-1.06 1.71-1.06 3.08v5.2s1.29 1.11 3.55 1.11c1.46 0 2.84-.28 3.9-1.31V9.2c0-.59-.24-1.04-.72-1.35-.53-.34-1.22-.51-2.06-.51-1.02 0-1.82.21-2.4.64v4.48h1.6v-3.2c.26-.12.57-.18.94-.18.44 0 .78.09 1.02.27.2.15.3.4.3.75v3.38c-.55.29-1.23.44-2.05.44-1.07 0-1.93-.21-2.57-.64V9.93c0-.92.33-1.58.99-1.97.7-.42 1.85-.63 3.45-.63 1.43 0 2.49.22 3.18.65.58.37.87.97.87 1.81v4.26c-.9.83-2.13 1.24-3.68 1.24-1.63 0-2.98-.37-4.05-1.1v1.32c1.26.65 2.81.98 4.66.98 1.67 0 3.01-.35 4.02-1.04 1.02.69 2.36 1.04 4.03 1.04 1.84 0 3.39-.33 4.65-.98v-1.32c-1.07.73-2.42 1.1-4.05 1.1-1.55 0-2.78-.41-3.68-1.24V9.79c0-.84.29-1.44.87-1.81.69-.43 1.75-.65 3.18-.65 1.6 0 2.75.21 3.45.63.66.39.99 1.05.99 1.97v3.96c-.64.43-1.5.64-2.57.64-.82 0-1.5-.15-2.05-.44v-3.38c0-.35.1-.6.3-.75.24-.18.58-.27 1.02-.27.37 0 .68.06.94.18v3.2h1.6V9.93c-.58-.43-1.38-.64-2.4-.64-.84 0-1.53.17-2.06.51-.48.31-.72.76-.72 1.35v4.48c1.06 1.03 2.44 1.31 3.9 1.31 2.26 0 3.55-1.11 3.55-1.11V10.4c.03-1.22.01-2.32.01-3.24Z" transform="scale(.8) translate(3 3)"/></svg>
